STARTFONT 2.1
FONT -Monotype-Book Antiqua-Bold-R-Normal--36-360-75-75-P-189-iso8859-2
SIZE 36 75 75
FONTBOUNDINGBOX 44 49 -5 -13

STARTPROPERTIES 24
FOUNDRY "Monotype"
FAMILY_NAME "Book Antiqua"
WEIGHT_NAME "Bold"
SLANT "R"
SETWIDTH_NAME "Normal"
ADD_STYLE_NAME ""
PIXEL_SIZE 36
POINT_SIZE 360
RESOLUTION_X 75
RESOLUTION_Y 75
SPACING "P"
AVERAGE_WIDTH 189
CHARSET_REGISTRY "iso8859"
CHARSET_ENCODING "2"
FACE_NAME "Book Antiqua Bold ISO Latin2"
_DEC_DEVICE_FONTNAMES "PS=bookantiqua-b-lat2"
COPYRIGHT "Copyright (c) 1993 Monotype Typography Ltd."
CAP_HEIGHT 34
X_HEIGHT 23
WEIGHT 10
QUAD_WIDTH 24
DEFAULT_CHAR 160
FONT_DESCENT 13
FONT_ASCENT 36
ENDPROPERTIES

CHARS 191

STARTCHAR space
ENCODING 32
SWIDTH 250 0
DWIDTH 10 0
BBX 0 0 0 0
BITMAP
ENDCHAR

STARTCHAR exclam
ENCODING 33
SWIDTH 278 0
DWIDTH 11 0
BBX 6 26 2 0
BITMAP
1C
7C
FC
FC
FC
7C
78
78
78
78
78
78
38
30
30
30
30
30
00
00
78
FC
FC
FC
7C
38
ENDCHAR

STARTCHAR quotedbl
ENCODING 34
SWIDTH 402 0
DWIDTH 15 0
BBX 13 12 1 14
BITMAP
7870
F8F8
F8F8
F8F8
F8F8
F8F8
7870
7070
7070
7070
2020
2020
ENDCHAR

STARTCHAR numbersign
ENCODING 35
SWIDTH 606 0
DWIDTH 23 0
BBX 21 26 1 0
BITMAP
01C1C0
0181C0
0381C0
038180
038380
038380
038380
7FFFF8
7FFFF8
7FFBF8
070700
070700
070700
070700
060700
FFFFF0
FFFFF0
FFFFF0
0E0E00
0E0E00
0E0E00
1C0E00
1C0E00
1C0C00
1C1C00
1C1C00
ENDCHAR

STARTCHAR dollar
ENCODING 36
SWIDTH 500 0
DWIDTH 19 0
BBX 17 33 1 -4
BITMAP
018000
018000
018000
07F800
1FFF00
3D9E00
798600
718600
F18600
F18600
F18000
F18000
FD8000
FFE000
7FFC00
7FFE00
1FFF00
07FF80
01BF80
018F80
018780
018780
C18780
C18780
C18F00
E18E00
F9BE00
FFF800
3FE000
018000
018000
018000
018000
ENDCHAR

STARTCHAR percent
ENCODING 37
SWIDTH 889 0
DWIDTH 34 0
BBX 31 28 1 -1
BITMAP
00000700
1F800600
73C00C00
71E00C00
E1E01800
E0E01800
E0E03000
E0E03000
E0E06000
E0E06000
E0E0C000
E0E0C1F8
F0E1833C
71C1871C
7983061E
3F030E0E
00060E0E
00060E0E
000C0E0E
000C0E0E
00180E0E
00180E0E
00300E0E
00300F0C
0060071C
006007B8
00C003F0
01C00000
ENDCHAR

STARTCHAR ampersand
ENCODING 38
SWIDTH 833 0
DWIDTH 32 0
BBX 30 26 2 0
BITMAP
003E0000
007F0000
00C78000
01838000
03838000
07838000
07870000
078F0000
07DE0000
03F80000
03F00000
03E07FF8
0FF0FFF8
1CF81E08
3CFC0E00
787E0E00
F83F0E00
F81F8C00
F80FDC00
FC07F000
7E03F800
7F00FE0C
3F81FFF8
3FFFBFF0
0FFE1FE0
01F007C0
ENDCHAR

STARTCHAR quoteright
ENCODING 39
SWIDTH 278 0
DWIDTH 11 0
BBX 9 12 1 16
BITMAP
0080
0F00
1F00
1E00
3E00
3C00
3C00
3800
7000
7000
E000
4000
ENDCHAR

STARTCHAR parenleft
ENCODING 40
SWIDTH 333 0
DWIDTH 13 0
BBX 9 37 3 -9
BITMAP
0080
0180
0300
0700
0E00
1E00
1C00
3C00
3C00
7C00
7800
7800
7800
F800
F800
F800
F800
F800
F800
F800
F800
F800
F800
F800
7800
7800
7800
3C00
3C00
3C00
1C00
1E00
0E00
0700
0300
0180
0080
ENDCHAR

STARTCHAR parenright
ENCODING 41
SWIDTH 333 0
DWIDTH 13 0
BBX 9 37 1 -9
BITMAP
4000
C000
6000
7000
3800
3C00
1C00
1E00
1E00
1F00
0F00
0F00
0F80
0F80
0F80
0F80
0F80
0F80
0F80
0F80
0F80
0F80
0F80
0F80
0F00
0F00
0F00
1F00
1E00
1E00
1C00
3C00
3800
7000
6000
C000
4000
ENDCHAR

STARTCHAR asterisk
ENCODING 42
SWIDTH 444 0
DWIDTH 17 0
BBX 13 14 2 12
BITMAP
0380
43C0
6380
F380
FB00
1E38
07F8
1EF8
FB08
F300
6380
43C0
0380
0100
ENDCHAR

STARTCHAR plus
ENCODING 43
SWIDTH 606 0
DWIDTH 23 0
BBX 19 19 2 3
BITMAP
00E000
00E000
00E000
00E000
00E000
00E000
00E000
00E000
FFFFE0
FFFFE0
FFFFE0
00E000
00E000
00E000
00E000
00E000
00E000
00E000
00E000
ENDCHAR

STARTCHAR comma
ENCODING 44
SWIDTH 250 0
DWIDTH 10 0
BBX 9 12 0 -7
BITMAP
0380
1F00
1F00
3E00
3E00
3C00
3800
7800
7000
E000
E000
8000
ENDCHAR

STARTCHAR minus
ENCODING 45
SWIDTH 606 0
DWIDTH 23 0
BBX 19 3 2 11
BITMAP
FFFFE0
FFFFE0
FFFFE0
ENDCHAR

STARTCHAR period
ENCODING 46
SWIDTH 250 0
DWIDTH 10 0
BBX 6 6 2 0
BITMAP
78
FC
FC
FC
7C
38
ENDCHAR

STARTCHAR slash
ENCODING 47
SWIDTH 296 0
DWIDTH 11 0
BBX 19 35 -5 -8
BITMAP
0003E0
0003C0
0003C0
000780
000780
000F00
000F00
000F00
001E00
001E00
003C00
003C00
003800
007800
007800
00F000
00F000
00E000
01E000
01E000
03C000
03C000
078000
078000
078000
0F0000
0F0000
1E0000
1E0000
1C0000
3C0000
3C0000
780000
780000
F80000
ENDCHAR

STARTCHAR zero
ENCODING 48
SWIDTH 500 0
DWIDTH 19 0
BBX 17 26 1 0
BITMAP
03F000
0FFC00
1E3E00
3C1E00
381F00
781F00
780F00
780F80
780F80
F80F80
F80F80
F80F80
F80F80
F80F80
F80F80
F80F80
F80F80
F80F00
780F00
780F00
7C0F00
7C0E00
3C1E00
1E3C00
0FF800
03E000
ENDCHAR

STARTCHAR one
ENCODING 49
SWIDTH 500 0
DWIDTH 19 0
BBX 16 26 0 0
BITMAP
0018
00F0
03F0
3FF0
FDF0
71F0
41F0
01F0
01F0
01F0
01F0
01F0
01F0
01F0
01F0
01F0
01F0
01F0
01F0
01F0
01F0
01F0
01F0
03F0
3FFF
3FFF
ENDCHAR

STARTCHAR two
ENCODING 50
SWIDTH 500 0
DWIDTH 19 0
BBX 17 26 1 0
BITMAP
0FF000
1FFC00
7FFE00
7FFE00
787F00
603F00
601F00
601F00
401F00
001F00
001E00
003E00
003C00
003800
007800
00F000
01E000
03C000
038000
060000
0C0000
380000
7FFF80
FFFF80
FFFF80
FFFF80
ENDCHAR

STARTCHAR three
ENCODING 51
SWIDTH 500 0
DWIDTH 19 0
BBX 17 26 1 0
BITMAP
07F000
1FF800
3FFC00
3FFE00
307E00
603E00
601E00
401E00
001C00
003800
006000
07FC00
07FE00
0FFF00
003F80
001F80
000F80
000F80
000F80
C00F00
C00F00
E01E00
701C00
787800
7FF000
3F8000
ENDCHAR

STARTCHAR four
ENCODING 52
SWIDTH 500 0
DWIDTH 19 0
BBX 18 27 0 -1
BITMAP
000E00
007E00
007E00
00FE00
01DE00
01BE00
033E00
033E00
063E00
0E3E00
0C3E00
183E00
183E00
303C00
303C00
703C00
603C00
FFFFC0
FFFFC0
FFFFC0
003C00
003C00
003C00
007C00
007E00
07FFC0
07FFC0
ENDCHAR

STARTCHAR five
ENCODING 53
SWIDTH 500 0
DWIDTH 19 0
BBX 17 26 1 0
BITMAP
3FFF00
3FFF00
3FFF00
3FFF00
300000
300000
300000
300000
300000
33F000
3FFC00
3FFE00
3FFF00
383F00
101F80
000F80
000F80
000F80
000F00
400F00
C00F00
E01E00
601C00
787800
7FF000
3F8000
ENDCHAR

STARTCHAR six
ENCODING 54
SWIDTH 500 0
DWIDTH 19 0
BBX 17 26 1 0
BITMAP
001C00
00FF00
03E000
078000
0F0000
1E0000
3E0000
3C0000
7C0000
7C0000
78FC00
F9FE00
FFFF00
FE3F00
FC1F80
F80F80
F80F80
F80F80
F80F80
F80F80
780F00
7C0F00
3C1E00
3E3C00
0FF800
07E000
ENDCHAR

STARTCHAR seven
ENCODING 55
SWIDTH 500 0
DWIDTH 19 0
BBX 18 26 1 0
BITMAP
FFFFC0
FFFFC0
FFFFC0
FFFF80
FFFF80
E00300
C00700
C00600
C00E00
001C00
001C00
003800
003000
007000
007000
00E000
01E000
01C000
03C000
038000
078000
0F0000
0F0000
1F0000
1E0000
3E0000
ENDCHAR

STARTCHAR eight
ENCODING 56
SWIDTH 500 0
DWIDTH 19 0
BBX 17 26 1 0
BITMAP
03F800
0FFC00
1E1E00
380F00
380700
780700
780700
7C0700
7E0E00
7F9C00
3FF000
1FFC00
07FE00
0FFF00
3CFF80
783F80
700F80
F00F80
F00780
F00780
F00780
780F00
780E00
3E1E00
1FF800
07E000
ENDCHAR

STARTCHAR nine
ENCODING 57
SWIDTH 500 0
DWIDTH 19 0
BBX 17 26 1 0
BITMAP
03F000
0FFC00
1C3E00
3C1E00
781F00
780F00
F80F80
F80F80
F80F80
F80F80
F80F80
7C1F80
7E3F80
7FF780
3FCF80
0F8F80
001F00
001F00
001F00
001E00
003C00
007800
00F000
01E000
7FC000
3C0000
ENDCHAR

STARTCHAR colon
ENCODING 58
SWIDTH 250 0
DWIDTH 10 0
BBX 6 18 2 0
BITMAP
78
FC
FC
FC
78
30
00
00
00
00
00
00
30
7C
FC
FC
7C
38
ENDCHAR

STARTCHAR semicolon
ENCODING 59
SWIDTH 250 0
DWIDTH 10 0
BBX 9 24 0 -6
BITMAP
0F00
1F80
1F80
1F80
0F80
0700
0000
0000
0000
0000
0000
0000
0000
0380
1F00
1F00
1E00
3E00
3C00
3C00
3800
7000
7000
E000
ENDCHAR

STARTCHAR less
ENCODING 60
SWIDTH 606 0
DWIDTH 23 0
BBX 19 20 2 3
BITMAP
000020
0001E0
0007E0
001FE0
007F80
01FE00
0FF800
3FE000
FF0000
F80000
FC0000
FF0000
3FC000
0FF000
03FE00
00FF80
001FE0
0007E0
0001E0
000060
ENDCHAR

STARTCHAR equal
ENCODING 61
SWIDTH 606 0
DWIDTH 23 0
BBX 19 10 2 8
BITMAP
FFFFE0
FFFFE0
FFFFE0
000000
000000
000000
000000
FFFFE0
FFFFE0
FFFFE0
ENDCHAR

STARTCHAR greater
ENCODING 62
SWIDTH 606 0
DWIDTH 23 0
BBX 19 20 2 3
BITMAP
800000
F00000
FC0000
FF0000
3FC000
0FF000
03FE00
00FF80
001FE0
0003E0
0007E0
001FE0
007F80
01FE00
0FF800
3FE000
FF0000
FC0000
F00000
C00000
ENDCHAR

STARTCHAR question
ENCODING 63
SWIDTH 444 0
DWIDTH 17 0
BBX 14 26 1 0
BITMAP
0FC0
3FF0
7FF8
7FFC
60FC
C07C
C07C
007C
00F8
00F8
01F0
03E0
0780
0700
0E00
0C00
0C00
0400
0000
0000
0600
0F00
1F80
1F80
0F00
0600
ENDCHAR

STARTCHAR at
ENCODING 64
SWIDTH 747 0
DWIDTH 28 0
BBX 28 29 0 -3
BITMAP
001FE000
00701C00
01C00200
03000100
0E000080
0C000040
18000040
30073860
301CB820
6038F820
6038F020
4070F020
C0F0F020
C0F0F020
C1E1E020
C1E1E040
C1E3E040
C1E3C080
41E5C100
41FBC310
61F1CC10
20E1F020
30000020
18000040
08000080
06000100
03000600
00E03800
001FC000
ENDCHAR

STARTCHAR A
ENCODING 65
SWIDTH 778 0
DWIDTH 30 0
BBX 28 26 1 0
BITMAP
00070000
000F0000
000F0000
001F8000
001F8000
003FC000
003FC000
0037E000
0077E000
0063E000
00E3F000
00C3F000
00C1F800
0181F800
0180FC00
0300FC00
03FFFC00
07FFFE00
06007E00
06003F00
0E003F00
0C001F80
1C001F80
1C001FC0
FF80FFF0
FF80FFF0
ENDCHAR

STARTCHAR B
ENCODING 66
SWIDTH 667 0
DWIDTH 25 0
BBX 23 26 1 0
BITMAP
FFFFC0
FFFFF0
1F83F8
0F81FC
0F80FC
0F80FC
0F80FC
0F80F8
0F80F8
0F81F0
0F87C0
0FFE00
0FFFE0
0F83F8
0F80FC
0F807C
0F807E
0F807E
0F807E
0F807E
0F807C
0F80FC
0F80F8
0F83F0
1FFFE0
3FFF00
ENDCHAR

STARTCHAR C
ENCODING 67
SWIDTH 722 0
DWIDTH 27 0
BBX 25 26 1 0
BITMAP
003FF800
01FFFF80
07F01F80
0FC00780
1F800380
3F000100
3E000100
7E000100
7C000000
FC000000
FC000000
FC000000
FC000000
FC000000
FC000000
FC000000
7E000000
7E000000
7F000000
3F000000
1F800000
0FE00080
07F80380
03FFFF00
00FFFC00
000FE000
ENDCHAR

STARTCHAR D
ENCODING 68
SWIDTH 833 0
DWIDTH 32 0
BBX 29 26 2 0
BITMAP
FFFFF800
FFFFFF00
1F007F80
1F001FC0
1F000FE0
1F0007F0
1F0003F0
1F0003F0
1F0001F8
1F0001F8
1F0001F8
1F0001F8
1F0001F8
1F0001F8
1F0001F8
1F0001F0
1F0001F0
1F0003F0
1F0003E0
1F0007E0
1F0007C0
1F000F80
1F003F00
1F00FC00
3FFFF000
7FFF8000
ENDCHAR

STARTCHAR E
ENCODING 69
SWIDTH 611 0
DWIDTH 23 0
BBX 20 26 2 0
BITMAP
FFFFF0
7FFFF0
1F0060
1F0020
1F0020
1F0000
1F0000
1F0000
1F0080
1F0180
1F0180
1FFF80
1FFF80
1F0180
1F0180
1F0080
1F0000
1F0000
1F0000
1F0010
1F0030
1F0030
1F0030
1F0070
3FFFF0
7FFFF0
ENDCHAR

STARTCHAR F
ENCODING 70
SWIDTH 556 0
DWIDTH 21 0
BBX 19 26 2 0
BITMAP
FFFFE0
FFFFE0
3F00E0
1F0060
1F0060
1F0040
1F0000
1F0000
1F0000
1F0180
1F0180
1F0180
1FFF80
1FFF80
1F0180
1F0180
1F0180
1F0000
1F0000
1F0000
1F0000
1F0000
1F0000
1F0000
3F8000
FFF000
ENDCHAR

STARTCHAR G
ENCODING 71
SWIDTH 833 0
DWIDTH 32 0
BBX 28 26 2 0
BITMAP
003FF800
00FFFF80
03F00FC0
0FC003C0
1F8001C0
3F000180
3E000080
7E000080
7C000000
7C000000
FC000000
FC000000
FC000000
FC000000
FC000000
FC007FF0
7C007FF0
7E0007C0
7E0007C0
3F0007C0
1F0007C0
1F8007C0
0FE007C0
03F81FC0
01FFFF00
003FF000
ENDCHAR

STARTCHAR H
ENCODING 72
SWIDTH 833 0
DWIDTH 32 0
BBX 30 26 1 0
BITMAP
FFF87FFC
FFF87FFC
0F8007C0
0F8007C0
0F8007C0
0F8007C0
0F8007C0
0F8007C0
0F8007C0
0F8007C0
0F8007C0
0FFFFFC0
0FFFFFC0
0F8007C0
0F8007C0
0F8007C0
0F8007C0
0F8007C0
0F8007C0
0F8007C0
0F8007C0
0F8007C0
0F8007C0
0FC00FE0
FFF87FFC
FFF87FFC
ENDCHAR

STARTCHAR I
ENCODING 73
SWIDTH 389 0
DWIDTH 15 0
BBX 13 26 1 0
BITMAP
FFF8
FFF8
0FC0
0F80
0F80
0F80
0F80
0F80
0F80
0F80
0F80
0F80
0F80
0F80
0F80
0F80
0F80
0F80
0F80
0F80
0F80
0F80
0F80
0F80
7FF0
FFF8
ENDCHAR

STARTCHAR J
ENCODING 74
SWIDTH 389 0
DWIDTH 15 0
BBX 14 34 0 -8
BITMAP
7FFC
7FFC
07E0
07C0
07C0
07C0
07C0
07C0
07C0
07C0
07C0
07C0
07C0
07C0
07C0
07C0
07C0
07C0
07C0
07C0
07C0
07C0
07C0
07C0
07C0
07C0
07C0
0780
0780
0700
8E00
FC00
F800
E000
ENDCHAR

STARTCHAR K
ENCODING 75
SWIDTH 778 0
DWIDTH 30 0
BBX 27 26 2 0
BITMAP
FFE01FC0
3F801F00
1F003C00
1F007800
1F00F000
1F01E000
1F03C000
1F078000
1F0F0000
1F180000
1F3C0000
1F7C0000
1FFE0000
1F7F0000
1F3F8000
1F1FC000
1F0FC000
1F0FE000
1F07F000
1F03F800
1F01FC00
1F00FE00
1F007F00
3F003F80
FFE03FE0
FFE01FE0
ENDCHAR

STARTCHAR L
ENCODING 76
SWIDTH 611 0
DWIDTH 23 0
BBX 21 26 1 0
BITMAP
FFF800
FFF800
0FC000
0F8000
0F8000
0F8000
0F8000
0F8000
0F8000
0F8000
0F8000
0F8000
0F8000
0F8000
0F8000
0F8000
0F8000
0F8000
0F8000
0F8008
0F8018
0F8018
0F8018
0F8078
1FFFF8
3FFFF8
ENDCHAR

STARTCHAR M
ENCODING 77
SWIDTH 1000 0
DWIDTH 38 0
BBX 35 26 2 0
BITMAP
FF80003FE0
FFC0003FE0
1FC0003F00
1FC0007F00
1FE0007F00
1BE000EF00
1BF000DF00
1BF001DF00
19F8019F00
19F8039F00
18FC031F00
18FC071F00
187E061F00
187E0E1F00
183F0C1F00
183F1C1F00
181F981F00
181FB81F00
180FD01F00
180FF01F00
1807E01F00
1807E01F00
1803C01F00
3803C03F80
FF0180FFE0
FF0180FFE0
ENDCHAR

STARTCHAR N
ENCODING 78
SWIDTH 833 0
DWIDTH 32 0
BBX 30 27 1 -1
BITMAP
FF8007FC
FFC007FC
0FC000E0
0FE000C0
0FF000C0
0FF800C0
0DFC00C0
0DFC00E0
0CFE00E0
0C7F00E0
0C3F80E0
0C1FC0E0
0C1FE0E0
0C0FE0E0
0C07F0E0
0C03F8E0
0C01FCE0
0C00FEE0
0C00FF60
0C007FE0
0C003FE0
0C001FE0
0C000FE0
0C0007E0
7F8003E0
FF8001E0
00000020
ENDCHAR

STARTCHAR O
ENCODING 79
SWIDTH 833 0
DWIDTH 32 0
BBX 29 26 1 0
BITMAP
003FF000
01FFFE00
07E03F00
0F800FC0
1F0007C0
3E0007E0
3E0003F0
7E0003F0
7C0001F0
7C0001F8
FC0001F8
FC0001F8
FC0001F8
FC0001F8
FC0001F8
FC0001F8
FC0001F0
7E0001F0
7E0003F0
7E0003E0
3F0007C0
1F8007C0
0FC00F80
07F03E00
01FFFC00
003FE000
ENDCHAR

STARTCHAR P
ENCODING 80
SWIDTH 611 0
DWIDTH 23 0
BBX 21 26 2 0
BITMAP
FFFFC0
FFFFF0
1F07F0
1F01F8
1F01F8
1F00F8
1F00F8
1F00F8
1F00F8
1F01F0
1F01F0
1F07E0
1F3FC0
1F3E00
1F0000
1F0000
1F0000
1F0000
1F0000
1F0000
1F0000
1F0000
1F0000
1F8000
FFF000
FFF000
ENDCHAR

STARTCHAR Q
ENCODING 81
SWIDTH 833 0
DWIDTH 32 0
BBX 30 32 1 -6
BITMAP
003FF000
01FFFE00
07E03F00
0F800FC0
1F0007C0
3E0007E0
3E0003F0
7E0003F0
7C0001F0
7C0001F8
FC0001F8
FC0001F8
FC0001F8
FC0001F8
FC0001F8
FC0001F8
FC0001F0
7E0001F0
7E0003F0
7E0003E0
3F0007C0
1F8007C0
0FC01F80
07F07E00
03FFF800
007FC000
000F8000
001FF000
007FFF04
00E3FFFC
00807FF0
000007E0
ENDCHAR

STARTCHAR R
ENCODING 82
SWIDTH 722 0
DWIDTH 27 0
BBX 25 26 2 0
BITMAP
FFFFC000
FFFFF000
1F07F000
1F01F800
1F01F800
1F00F800
1F00F800
1F00F800
1F00F800
1F01F000
1F03E000
1F078000
1F3F0000
1F3F0000
1F1F8000
1F1FC000
1F0FC000
1F07E000
1F07F000
1F03F000
1F01F800
1F01FC00
1F00FC00
1F807E00
FFE07F80
FFE03F80
ENDCHAR

STARTCHAR S
ENCODING 83
SWIDTH 611 0
DWIDTH 23 0
BBX 19 26 2 0
BITMAP
03FC00
0FFF80
3E0780
3C0180
780180
780180
F80180
F80000
FC0000
FE0000
7FE000
7FFF00
3FFF80
1FFFC0
03FFE0
000FE0
0007E0
0003E0
4003E0
4003E0
C003C0
E003C0
F00780
FC1F00
7FFC00
0FF000
ENDCHAR

STARTCHAR T
ENCODING 84
SWIDTH 667 0
DWIDTH 25 0
BBX 24 26 1 0
BITMAP
FFFFFF
FFFFFE
C07C06
C07C06
807C06
807C02
007C00
007C00
007C00
007C00
007C00
007C00
007C00
007C00
007C00
007C00
007C00
007C00
007C00
007C00
007C00
007C00
007C00
00FC00
07FFC0
07FFC0
ENDCHAR

STARTCHAR U
ENCODING 85
SWIDTH 778 0
DWIDTH 30 0
BBX 27 26 1 0
BITMAP
FFE01FE0
FFE01FE0
1F000300
1F000300
1F000300
1F000300
1F000300
1F000300
1F000300
1F000300
1F000300
1F000300
1F000300
1F000300
1F000300
1F000300
1F000300
1F000300
1F000300
1F800700
1F800700
0FC00E00
0FE03E00
07FFFC00
01FFF000
007FC000
ENDCHAR

STARTCHAR V
ENCODING 86
SWIDTH 778 0
DWIDTH 30 0
BBX 29 26 0 0
BITMAP
FFF00FF8
FFF00FF8
1FC001C0
0FC00180
0FC00380
07C00300
07E00300
07E00700
03F00600
03F00E00
01F80C00
01F81C00
00F81C00
00FC1800
00FC3800
007E3000
007E7000
003F6000
003F6000
001FE000
001FC000
000FC000
000F8000
000F8000
00078000
00070000
ENDCHAR

STARTCHAR W
ENCODING 87
SWIDTH 1000 0
DWIDTH 38 0
BBX 40 26 -1 0
BITMAP
FFF00601FF
FFF00E01FF
1F800E0038
1F801F0038
1F801F0038
0F803F8030
0FC03F8030
0FC0778070
0FC06FC060
07C0EFC060
07C0C7E0E0
07E1C7E0E0
07E183F0C0
03E383F0C0
03E303F1C0
03E701F980
03F601F980
03F600FD80
01FC00FD80
01FC007F00
01F8007F00
01F8007F00
00F0003F00
00F0003E00
00F0001E00
00E0001E00
ENDCHAR

STARTCHAR X
ENCODING 88
SWIDTH 667 0
DWIDTH 25 0
BBX 24 26 1 0
BITMAP
3F001F
FF801F
3F8038
1FC070
0FE0F0
07E0E0
07F1C0
03F380
01FB80
01FF00
00FE00
00FC00
007E00
003E00
007F00
00FF80
00DF80
01CFC0
038FC0
0707E0
0707F0
0E03F0
1C03F8
3C01F8
F800FE
F000FF
ENDCHAR

STARTCHAR Y
ENCODING 89
SWIDTH 667 0
DWIDTH 25 0
BBX 25 26 0 0
BITMAP
1F000780
FF800700
7F800F00
1FC00E00
0FE01C00
07E01C00
07F03800
03F03000
01F87000
01F8E000
00FCE000
007DC000
007F8000
003F8000
003F0000
001F0000
001F0000
001F0000
001F0000
001F0000
001F0000
001F0000
001F0000
001F0000
00FFE000
01FFF000
ENDCHAR

STARTCHAR Z
ENCODING 90
SWIDTH 667 0
DWIDTH 25 0
BBX 23 26 1 0
BITMAP
3FFFFE
3FFEFE
3801FC
3001F8
3003F8
3003F0
0007E0
000FC0
001FC0
001F80
003F00
007F00
007E00
00FC00
01F800
01F800
03F000
07E000
07E000
0FC006
1F8006
3F8006
3F0006
7E000C
FFFFFC
FFFFFC
ENDCHAR

STARTCHAR bracketleft
ENCODING 91
SWIDTH 333 0
DWIDTH 13 0
BBX 10 35 2 -8
BITMAP
FFC0
7FC0
7C00
7800
7800
7800
7800
7800
7800
7800
7800
7800
7800
7800
7800
7800
7800
7800
7800
7800
7800
7800
7800
7800
7800
7800
7800
7800
7800
7800
7800
7800
7C00
7FC0
FFC0
ENDCHAR

STARTCHAR backslash
ENCODING 92
SWIDTH 606 0
DWIDTH 23 0
BBX 20 35 2 -8
BITMAP
F80000
780000
3C0000
3C0000
1E0000
1E0000
0F0000
0F0000
0F0000
078000
078000
03C000
03C000
01E000
01E000
00F000
00F000
00F000
007800
007800
003C00
003C00
001E00
001E00
000E00
000F00
000F00
000780
000780
0003C0
0003C0
0001E0
0001E0
0001F0
0000F0
ENDCHAR

STARTCHAR bracketright
ENCODING 93
SWIDTH 333 0
DWIDTH 13 0
BBX 10 35 0 -8
BITMAP
FFC0
FFC0
0F80
0780
0780
0780
0780
0780
0780
0780
0780
0780
0780
0780
0780
0780
0780
0780
0780
0780
0780
0780
0780
0780
0780
0780
0780
0780
0780
0780
0780
07C0
0FC0
FFC0
FFC0
ENDCHAR

STARTCHAR asciicircum
ENCODING 94
SWIDTH 606 0
DWIDTH 23 0
BBX 19 15 2 11
BITMAP
01F000
01F000
03F800
03F800
07FC00
07BC00
0FBE00
0F1E00
1F1F00
1E0F00
3E0F80
3C0780
7C03C0
7803C0
F801E0
ENDCHAR

STARTCHAR underscore
ENCODING 95
SWIDTH 500 0
DWIDTH 19 0
BBX 19 2 0 -5
BITMAP
FFFFE0
FFFFE0
ENDCHAR

STARTCHAR quoteleft
ENCODING 96
SWIDTH 278 0
DWIDTH 11 0
BBX 9 12 1 16
BITMAP
0080
0700
0700
0F00
0E00
1E00
3C00
3C00
7C00
7C00
F800
4000
ENDCHAR

STARTCHAR a
ENCODING 97
SWIDTH 500 0
DWIDTH 19 0
BBX 17 18 1 0
BITMAP
03F000
0FF800
3FFC00
307E00
303E00
003E00
003E00
007E00
07FE00
3F3E00
7C3E00
783E00
F83E00
F83E00
FC7E00
FFDE00
7F3F80
1C0000
ENDCHAR

STARTCHAR b
ENCODING 98
SWIDTH 611 0
DWIDTH 23 0
BBX 20 28 1 0
BITMAP
020000
1E0000
FE0000
3E0000
1E0000
1E0000
1E0000
1E0000
1E0000
1E0000
1E3F00
1E7FC0
1EFFE0
1F87E0
1F03F0
1E01F0
1E01F0
1E01F0
1E01F0
1E01E0
1E01E0
1E01E0
1E01C0
1E0380
1F8700
1FFE00
3BFC00
11F000
ENDCHAR

STARTCHAR c
ENCODING 99
SWIDTH 444 0
DWIDTH 17 0
BBX 15 18 1 0
BITMAP
01F8
07FE
0FFC
1C1C
380C
780C
780C
F800
F800
F800
F800
FC00
7C00
7E00
7F00
3FFE
0FFC
03F0
ENDCHAR

STARTCHAR d
ENCODING 100
SWIDTH 611 0
DWIDTH 23 0
BBX 21 28 2 0
BITMAP
000020
0003E0
001FE0
0007E0
0007E0
0003E0
0003C0
0003C0
0003C0
0003C0
01FBC0
07FFC0
1E1FC0
3C07C0
7C03C0
7803C0
F803C0
F803C0
F803C0
F803C0
F803C0
FC03C0
7C07C0
7E0FC0
7FFBC0
3FF3E0
1FE7F8
078000
ENDCHAR

STARTCHAR e
ENCODING 101
SWIDTH 500 0
DWIDTH 19 0
BBX 16 18 2 0
BITMAP
03F0
0FFC
3C3E
781E
781F
F81F
F81F
FFFF
FFFE
F800
F800
F800
FC00
7E00
7F03
3FFE
1FFC
03F0
ENDCHAR

STARTCHAR f
ENCODING 102
SWIDTH 389 0
DWIDTH 15 0
BBX 14 28 1 0
BITMAP
003C
00FC
01FC
03FC
070C
0F00
1E00
1E00
1E00
1E00
1E00
3E00
7FF8
FFF0
1E00
1E00
1E00
1E00
1E00
1E00
1E00
1E00
1E00
1E00
1E00
1F00
3F00
FFE0
ENDCHAR

STARTCHAR g
ENCODING 103
SWIDTH 556 0
DWIDTH 21 0
BBX 21 29 1 -11
BITMAP
03F800
0FFE00
1E1FF8
3C0FF0
3C0F80
7C0F80
7C0F80
7C0F80
7C0F00
3E0F00
3F1E00
1FFC00
07F000
0C0000
1C0000
3FFFC0
3FFFE0
3FFFF0
0FFFF0
1C01F0
7800F0
7000F0
F000F0
F000E0
F001E0
7803C0
7E0780
1FFE00
07F800
ENDCHAR

STARTCHAR h
ENCODING 104
SWIDTH 611 0
DWIDTH 23 0
BBX 23 28 0 0
BITMAP
010000
1F0000
FF0000
1F0000
1F0000
1F0000
1F0000
1F0000
1F0000
1F0000
1F1FC0
1F3FE0
1F7FE0
1FC7F0
1F83F0
1F01F0
1F01F0
1F01F0
1F01F0
1F01F0
1F01F0
1F01F0
1F01F0
1F01F0
1F01F0
1F01F0
FFE1FE
FFE1FE
ENDCHAR

STARTCHAR i
ENCODING 105
SWIDTH 333 0
DWIDTH 13 0
BBX 11 27 1 0
BITMAP
0C00
1E00
3F00
3F00
1E00
0C00
0000
0000
0000
0300
3F00
FF00
1F00
1F00
1F00
1F00
1F00
1F00
1F00
1F00
1F00
1F00
1F00
1F00
1F00
FFE0
FFE0
ENDCHAR

STARTCHAR j
ENCODING 106
SWIDTH 333 0
DWIDTH 13 0
BBX 9 37 0 -10
BITMAP
0600
0F00
1F80
1F80
0F00
0600
0000
0000
0000
0180
7F80
7F80
0F80
0F80
0F80
0F80
0F80
0F80
0F80
0F80
0F80
0F80
0F80
0F80
0F80
0F80
0F80
0F80
0F80
0F00
0F00
0F00
0E00
1E00
1C00
F800
6000
ENDCHAR

STARTCHAR k
ENCODING 107
SWIDTH 611 0
DWIDTH 23 0
BBX 22 28 1 0
BITMAP
010000
0F0000
FF0000
7F0000
1F0000
1F0000
1F0000
1F0000
1F0000
1F0000
1F00F8
1F01F8
1F03C0
1F0780
1F0E00
1F1C00
1F3800
1F7800
1FFC00
1F7E00
1F7F00
1F3F80
1F1F80
1F0FC0
1F07E0
1F03F0
7FC3FC
FFE1FC
ENDCHAR

STARTCHAR l
ENCODING 108
SWIDTH 333 0
DWIDTH 13 0
BBX 11 28 1 0
BITMAP
0100
0700
FF00
7F00
1F00
1F00
1F00
1F00
1F00
1F00
1F00
1F00
1F00
1F00
1F00
1F00
1F00
1F00
1F00
1F00
1F00
1F00
1F00
1F00
1F00
1F00
FFC0
FFE0
ENDCHAR

STARTCHAR m
ENCODING 109
SWIDTH 889 0
DWIDTH 34 0
BBX 31 18 2 0
BITMAP
063F07C0
FE7F8FF0
FEFFBFF0
3F0FE1F8
3E07C0F8
3E07C0F8
3E07C0F8
3E07C0F8
3E07C0F8
3E07C0F8
3E07C0F8
3E07C0F8
3E07C0F8
3E07C0F8
3E07C0F8
3E07C0F8
FF9FF8FE
FF9FF8FE
ENDCHAR

STARTCHAR n
ENCODING 110
SWIDTH 611 0
DWIDTH 23 0
BBX 21 18 1 0
BITMAP
071F80
FF7FC0
FF7FC0
1FC7E0
1F03E0
1F03E0
1F03E0
1F03E0
1F03E0
1F03E0
1F03E0
1F03E0
1F03E0
1F03E0
1F03E0
1F03E0
FFC3F8
FFC3F8
ENDCHAR

STARTCHAR o
ENCODING 111
SWIDTH 556 0
DWIDTH 21 0
BBX 18 18 2 0
BITMAP
07F800
1FFE00
3E1F00
7C0F80
7C0F80
F807C0
F807C0
F807C0
F807C0
F807C0
F807C0
F807C0
FC0780
7C0780
7C0F00
3E1F00
1FFC00
03F000
ENDCHAR

STARTCHAR p
ENCODING 112
SWIDTH 611 0
DWIDTH 23 0
BBX 20 27 1 -9
BITMAP
063F00
FE7FC0
FEFFE0
3F87E0
1F03F0
1E01F0
1E01F0
1E01F0
1E01F0
1E01F0
1E01E0
1E01E0
1E01C0
1E03C0
1F0380
1F8F00
1FFE00
1EF800
1E0000
1E0000
1E0000
1E0000
1E0000
1E0000
3E0000
3F0000
FFC000
ENDCHAR

STARTCHAR q
ENCODING 113
SWIDTH 611 0
DWIDTH 23 0
BBX 21 27 2 -9
BITMAP
01FC40
07FFC0
0E1FC0
3C07C0
7807C0
7807C0
7807C0
F807C0
F807C0
F807C0
F807C0
FC07C0
FC07C0
7E0FC0
7FFBC0
3FF7C0
1FC7C0
0787C0
0007C0
0007C0
0007C0
0007C0
0007C0
0007C0
0007C0
003FF8
003FF8
ENDCHAR

STARTCHAR r
ENCODING 114
SWIDTH 389 0
DWIDTH 15 0
BBX 14 18 0 0
BITMAP
031C
FF3C
FF7C
1F7C
1F8C
1F00
1F00
1F00
1F00
1F00
1F00
1F00
1F00
1F00
1F00
1F00
FFE0
FFE0
ENDCHAR

STARTCHAR s
ENCODING 115
SWIDTH 444 0
DWIDTH 17 0
BBX 14 18 1 0
BITMAP
0FE0
3FF8
7838
7018
F018
F800
FE00
FFE0
7FF8
3FFC
07FC
007C
C03C
C03C
C038
F078
FFE0
1F80
ENDCHAR

STARTCHAR t
ENCODING 116
SWIDTH 333 0
DWIDTH 13 0
BBX 13 25 0 0
BITMAP
0100
0700
1F00
1F00
1F00
1F00
1F00
1F00
3FF8
FFF8
1F00
1F00
1F00
1F00
1F00
1F00
1F00
1F00
1F00
1F00
1F00
1F90
1FF0
0FE0
07C0
ENDCHAR

STARTCHAR u
ENCODING 117
SWIDTH 611 0
DWIDTH 23 0
BBX 22 18 0 0
BITMAP
030060
7F0FE0
FF1FE0
1F03E0
1F03E0
1F03E0
1F03E0
1F03E0
1F03E0
1F03E0
1F03E0
1F03E0
1F03E0
1F87E0
0FFDE0
0FFBE0
07F3FC
03C3FC
ENDCHAR

STARTCHAR v
ENCODING 118
SWIDTH 556 0
DWIDTH 21 0
BBX 20 18 0 0
BITMAP
FFC7F0
FFC7F0
3F01C0
3F01C0
1F0180
1F0380
0F8300
0F8700
0F8600
07C600
07CC00
03EC00
03EC00
03F800
01F800
01F000
01F000
00F000
ENDCHAR

STARTCHAR w
ENCODING 119
SWIDTH 833 0
DWIDTH 32 0
BBX 31 18 0 0
BITMAP
FFE0C1FE
FFE1C1FE
3F01E038
1F03E030
1F03F030
0F87F070
0F86F860
0F8EF860
0F8CF8E0
07CC7CC0
07D87CC0
07D83EC0
03F03F80
03F03F80
03F01F80
03E01F00
01E00F00
01C00F00
ENDCHAR

STARTCHAR x
ENCODING 120
SWIDTH 500 0
DWIDTH 19 0
BBX 18 18 1 0
BITMAP
3C0780
7C0780
FE0E00
7F1C00
3F9800
1FB800
0FF000
07E000
03E000
03F000
03F800
07F800
0EFC00
0C7E00
1C7E00
383F80
F01FC0
F00E00
ENDCHAR

STARTCHAR y
ENCODING 121
SWIDTH 556 0
DWIDTH 21 0
BBX 20 27 0 -10
BITMAP
FFC7F0
3F01E0
3F01C0
1F0180
1F0380
0F8300
0F8300
0F8700
07C600
07CE00
07EC00
03FC00
03F800
01F800
01F800
01F000
00F000
00E000
006000
00C000
00C000
01C000
018000
630000
7F0000
7E0000
FC0000
ENDCHAR

STARTCHAR z
ENCODING 122
SWIDTH 500 0
DWIDTH 19 0
BBX 17 18 1 0
BITMAP
7FFF80
7FFF80
603F00
607E00
607C00
00F800
01F800
03F000
03E000
07E000
0FC000
1F8000
1F0180
3F0180
7C0180
FFFF80
FFFF80
FFFF80
ENDCHAR

STARTCHAR braceleft
ENCODING 123
SWIDTH 310 0
DWIDTH 12 0
BBX 11 35 1 -8
BITMAP
01E0
0380
0F00
0E00
1E00
1E00
1E00
1F00
1F00
1F00
0F00
0F00
0F00
0E00
0E00
1C00
7800
C000
3000
1C00
0E00
0F00
0F00
0F00
0F00
1F00
1F00
1F00
1E00
1E00
1E00
0E00
0F00
0780
01E0
ENDCHAR

STARTCHAR bar
ENCODING 124
SWIDTH 606 0
DWIDTH 23 0
BBX 4 34 10 -7
BITMAP
F0
F0
F0
F0
F0
F0
F0
F0
F0
F0
F0
F0
F0
F0
F0
F0
F0
F0
F0
F0
F0
F0
F0
F0
F0
F0
F0
F0
F0
F0
F0
F0
F0
F0
ENDCHAR

STARTCHAR braceright
ENCODING 125
SWIDTH 310 0
DWIDTH 12 0
BBX 11 35 0 -8
BITMAP
F000
3C00
1E00
0F00
0F00
0F00
0F00
1F00
1F00
1F00
1E00
1E00
1E00
0E00
0E00
0700
01C0
0060
01C0
0700
0F00
0E00
1E00
1E00
1E00
1F00
1F00
1F00
0F00
0F00
0F00
0E00
1E00
3800
F000
ENDCHAR

STARTCHAR asciitilde
ENCODING 126
SWIDTH 606 0
DWIDTH 23 0
BBX 21 7 1 9
BITMAP
1F0018
3FC018
7FF830
7FFFF0
60FFF0
401FE0
C007C0
ENDCHAR

STARTCHAR space
ENCODING 160
SWIDTH 250 0
DWIDTH 12 0
BBX 0 0 0 0
BITMAP
ENDCHAR

STARTCHAR Aogonek
ENCODING 161
SWIDTH 778 0
DWIDTH 30 0
BBX 28 35 2 -9
BITMAP
000E0000
000E0000
001F0000
001F0000
003F8000
003F8000
007FC000
006FC000
0067C000
00E7E000
00C7E000
01C3F000
0183F000
0181F800
0301F800
0300F800
07FFFC00
07FFFC00
0E007E00
0E007E00
0C003F00
1C003F00
1C003F80
38001F80
FF00FFF0
FF00F7F0
00000C00
00003000
00007000
00006000
0000E000
0000E000
0000F180
0000FE00
00007C00
ENDCHAR

STARTCHAR breve
ENCODING 162
SWIDTH 333 0
DWIDTH 13 0
BBX 11 6 1 19
BITMAP
8020
C060
E0C0
7FC0
3F80
0E00
ENDCHAR

STARTCHAR Lslash
ENCODING 163
SWIDTH 611 0
DWIDTH 23 0
BBX 21 26 1 0
BITMAP
FFF800
FFF800
0FC000
0F8000
0F8000
0F8200
0F8200
0F8E00
0F9C00
0FB800
0FE000
0FC000
0F8000
1F8000
3F8000
7F8000
EF8000
8F8000
0F8000
0F8008
0F8018
0F8018
0F8018
0F8078
1FFFF8
3FFFF8
ENDCHAR

STARTCHAR currency
ENCODING 164
SWIDTH 606 0
DWIDTH 23 0
BBX 19 19 2 4
BITMAP
23F080
77FEC0
FFFFE0
3FFFC0
7E0F80
7C07C0
F803E0
F001E0
F001E0
F001E0
F001E0
F801E0
F803C0
7C07C0
3E0F80
7FFFC0
FFFFE0
77FDC0
23F080
ENDCHAR

STARTCHAR Lcaron
ENCODING 165
SWIDTH 611 0
DWIDTH 23 0
BBX 21 27 1 0
BITMAP
000078
FFF9F0
FFF9F0
0FC1E0
0F81E0
0F83C0
0F8380
0F8380
0F8700
0F8F00
0F8400
0F8000
0F8000
0F8000
0F8000
0F8000
0F8000
0F8000
0F8000
0F8000
0F8008
0F8018
0F8018
0F8018
0F8078
1FFFF8
3FFFF8
ENDCHAR

STARTCHAR Sacute
ENCODING 166
SWIDTH 611 0
DWIDTH 23 0
BBX 19 34 2 0
BITMAP
001800
003C00
007800
00F000
01C000
078000
000000
000000
03FC00
0FFF80
3E0780
3C0180
780180
780180
F80180
F80000
FC0000
FE0000
7FE000
7FFF00
3FFF80
1FFFC0
03FFE0
000FE0
0007E0
0003E0
4003E0
4003E0
C003C0
E003C0
F00780
FC1F00
7FFC00
0FF000
ENDCHAR

STARTCHAR section
ENCODING 167
SWIDTH 500 0
DWIDTH 19 0
BBX 17 34 1 -8
BITMAP
01FC00
07FE00
0FFE00
1E0E00
3C0600
380600
780600
780000
7C0000
7E0000
3FC000
1FF800
3FFE00
7BFF00
707F80
F01F80
F00780
F80780
FF0780
7FE700
3FFE00
1FFE00
03FE00
00FF00
001F00
000F00
200F00
200E00
200E00
301E00
383C00
7FF800
3FF000
0FC000
ENDCHAR

STARTCHAR dieresis
ENCODING 168
SWIDTH 333 0
DWIDTH 13 0
BBX 12 5 0 19
BITMAP
6060
F0F0
F0F0
F0F0
6060
ENDCHAR

STARTCHAR Scaron
ENCODING 169
SWIDTH 611 0
DWIDTH 23 0
BBX 19 34 2 0
BITMAP
080600
060C00
071800
03B800
01F000
01E000
000000
000000
03FC00
0FFF80
3E0780
3C0180
780180
780180
F80180
F80000
FC0000
FE0000
7FE000
7FFF00
3FFF80
1FFFC0
03FFE0
000FE0
0007E0
0003E0
4003E0
4003E0
C003C0
E003C0
F00780
FC1F00
7FFC00
0FF000
ENDCHAR

STARTCHAR Scommaaccent
ENCODING 170
SWIDTH 611 0
DWIDTH 23 0
BBX 19 36 2 -10
BITMAP
03FC00
0FFF80
3E0780
3C0180
780180
780180
F80180
F80000
FC0000
FE0000
7FE000
7FFF00
3FFF80
1FFFC0
03FFE0
000FE0
0007E0
0003E0
4003E0
4003E0
C003C0
E003C0
F00780
FC1F00
7FFC00
0FF000
000000
000000
00F000
00E000
00E000
01C000
01C000
018000
030000
020000
ENDCHAR

STARTCHAR Tcaron
ENCODING 171
SWIDTH 667 0
DWIDTH 25 0
BBX 24 35 1 0
BITMAP
0200C0
030180
018700
00EE00
007C00
007C00
003800
000000
000000
FFFFFF
FFFFFE
C07C06
C07C06
807C06
807C02
007C00
007C00
007C00
007C00
007C00
007C00
007C00
007C00
007C00
007C00
007C00
007C00
007C00
007C00
007C00
007C00
007C00
00FC00
07FFC0
07FFC0
ENDCHAR

STARTCHAR Zacute
ENCODING 172
SWIDTH 667 0
DWIDTH 25 0
BBX 23 34 1 0
BITMAP
000F00
001F00
003E00
007800
00E000
018000
000000
000000
3FFFFE
3FFEFE
3801FC
3001F8
3003F8
3003F0
0007E0
000FC0
001FC0
001F80
003F00
007F00
007E00
00FC00
01F800
01F800
03F000
07E000
07E000
0FC006
1F8006
3F8006
3F0006
7E000C
FFFFFC
FFFFFC
ENDCHAR

STARTCHAR hyphen
ENCODING 173
SWIDTH 333 0
DWIDTH 13 0
BBX 13 4 0 7
BITMAP
7FF8
7FF0
7FF0
FFE0
ENDCHAR

STARTCHAR Zcaron
ENCODING 174
SWIDTH 667 0
DWIDTH 25 0
BBX 23 34 1 0
BITMAP
070180
018700
00CE00
00FC00
007800
003800
000000
000000
3FFFFE
3FFEFE
3801FC
3001F8
3003F8
3003F0
0007E0
000FC0
001FC0
001F80
003F00
007F00
007E00
00FC00
01F800
01F800
03F000
07E000
07E000
0FC006
1F8006
3F8006
3F0006
7E000C
FFFFFC
FFFFFC
ENDCHAR

STARTCHAR Zdotaccent
ENCODING 175
SWIDTH 667 0
DWIDTH 25 0
BBX 23 34 1 0
BITMAP
003000
007800
007C00
007800
003800
000000
000000
000000
3FFFFE
3FFEFE
3801FC
3001F8
3003F8
3003F0
0007E0
000FC0
001FC0
001F80
003F00
007F00
007E00
00FC00
01F800
01F800
03F000
07E000
07E000
0FC006
1F8006
3F8006
3F0006
7E000C
FFFFFC
FFFFFC
ENDCHAR

STARTCHAR degree
ENCODING 176
SWIDTH 396 0
DWIDTH 15 0
BBX 12 12 2 14
BITMAP
1F80
3FC0
70E0
E070
C030
C030
C030
E030
E070
70E0
3FC0
0F80
ENDCHAR

STARTCHAR aogonek
ENCODING 177
SWIDTH 500 0
DWIDTH 19 0
BBX 17 27 1 -9
BITMAP
03E000
0FF800
3FFC00
30FC00
307C00
003C00
003C00
00FC00
07FC00
3F3C00
7C3C00
783C00
F83C00
F83C00
FCFC00
FFBC00
7F3F80
1C0600
001800
003000
006000
00E000
00E000
00F080
00F100
00FE00
007C00
ENDCHAR

STARTCHAR ogonek
ENCODING 178
SWIDTH 333 0
DWIDTH 13 0
BBX 9 10 2 -10
BITMAP
0600
1800
3000
7000
E000
E000
F000
F180
FE00
7C00
ENDCHAR

STARTCHAR lslash
ENCODING 179
SWIDTH 333 0
DWIDTH 13 0
BBX 11 28 1 0
BITMAP
0100
0F00
FF00
7F00
1F00
1F00
1F00
1F00
1F20
1F60
1FC0
1F80
1F00
1F00
1F00
3F00
7F00
DF00
9F00
1F00
1F00
1F00
1F00
1F00
1F00
1F00
FFC0
FFE0
ENDCHAR

STARTCHAR acute
ENCODING 180
SWIDTH 333 0
DWIDTH 13 0
BBX 9 6 2 20
BITMAP
0300
0780
0F80
1E00
3800
E000
ENDCHAR

STARTCHAR lcaron
ENCODING 181
SWIDTH 449 0
DWIDTH 17 0
BBX 16 28 1 0
BITMAP
0101
070F
FF0E
7F0E
1F1C
1F1C
1F18
1F30
1F00
1F00
1F00
1F00
1F00
1F00
1F00
1F00
1F00
1F00
1F00
1F00
1F00
1F00
1F00
1F00
1F00
1F00
FFC0
FFE0
ENDCHAR

STARTCHAR sacute
ENCODING 182
SWIDTH 444 0
DWIDTH 17 0
BBX 14 26 1 0
BITMAP
0060
00F0
01E0
07C0
0F00
3C00
0000
0000
0FE0
3FF8
7838
7018
F018
F800
FE00
FFE0
7FF8
3FFC
07FC
007C
C03C
C03C
C038
F078
FFE0
1F80
ENDCHAR

STARTCHAR caron
ENCODING 183
SWIDTH 333 0
DWIDTH 13 0
BBX 12 7 0 19
BITMAP
C030
6060
38E0
1DC0
0F80
0F00
0600
ENDCHAR

STARTCHAR commaaccent
ENCODING 184
SWIDTH 333 0
DWIDTH 13 0
BBX 8 11 2 -13
BITMAP
03
1E
3E
3C
3C
38
78
70
70
E0
80
ENDCHAR

STARTCHAR scaron
ENCODING 185
SWIDTH 444 0
DWIDTH 17 0
BBX 14 26 1 0
BITMAP
6018
3030
1860
1DC0
0FC0
0780
0300
0000
0FE0
3FF8
7838
7018
F018
F800
FE00
FFE0
7FF8
3FFC
07FC
007C
C03C
C03C
C038
F078
FFE0
1F80
ENDCHAR

STARTCHAR scommaaccent
ENCODING 186
SWIDTH 444 0
DWIDTH 17 0
BBX 14 27 1 -9
BITMAP
0FE0
3FF8
7838
7018
F018
F800
FE00
FFE0
7FF8
3FFC
07FC
007C
C03C
C03C
C038
F078
FFE0
1F80
0000
0000
07C0
0780
0700
0700
0E00
0C00
1C00
ENDCHAR

STARTCHAR tcaron
ENCODING 187
SWIDTH 420 0
DWIDTH 16 0
BBX 17 28 0 0
BITMAP
000F80
000F00
000E00
010E00
071C00
1F1800
1F3800
1F0000
1F0000
1F0000
1F0000
3FF800
FFF800
1F0000
1F0000
1F0000
1F0000
1F0000
1F0000
1F0000
1F0000
1F0000
1F0000
1F0000
1F9000
1FF000
0FE000
07C000
ENDCHAR

STARTCHAR zacute
ENCODING 188
SWIDTH 500 0
DWIDTH 19 0
BBX 17 26 1 0
BITMAP
003800
00F800
01F000
03C000
070000
0E0000
000000
000000
7FFF80
7FFF80
603F00
607E00
607C00
00FC00
01F800
03F000
03E000
07E000
0FC000
0F8000
1F8180
3F0180
7E0180
7C0380
FFFF80
FFFF80
ENDCHAR

STARTCHAR hungarumlaut
ENCODING 189
SWIDTH 333 0
DWIDTH 13 0
BBX 15 6 -1 20
BITMAP
070C
0E1E
1E3C
3870
70E0
E380
ENDCHAR

STARTCHAR zcaron
ENCODING 190
SWIDTH 500 0
DWIDTH 19 0
BBX 17 26 1 0
BITMAP
380C00
0C3800
0E7000
07E000
03E000
01C000
000000
000000
7FFF80
7FFF80
603F00
607E00
607C00
00FC00
01F800
03F000
03E000
07E000
0FC000
0F8000
1F8180
3F0180
7E0180
7C0380
FFFF80
FFFF80
ENDCHAR

STARTCHAR zdotaccent
ENCODING 191
SWIDTH 500 0
DWIDTH 19 0
BBX 18 26 0 0
BITMAP
00C000
01E000
01E000
01E000
00C000
000000
000000
000000
3FFF80
3FFF80
301F00
303F00
207E00
00FC00
00F800
01F800
03F000
03E000
07E000
0FC000
0F80C0
1F80C0
3F0080
7E0180
FFFF80
FFFF80
ENDCHAR

STARTCHAR Racute
ENCODING 192
SWIDTH 722 0
DWIDTH 27 0
BBX 25 34 2 0
BITMAP
00038000
00078000
000F0000
001E0000
00380000
00E00000
00000000
00000000
FFFFC000
FFFFF000
1F07F000
1F01F800
1F01F800
1F00F800
1F00F800
1F00F800
1F00F800
1F01F000
1F03E000
1F078000
1F3F0000
1F3F0000
1F1F8000
1F1FC000
1F0FC000
1F07E000
1F07F000
1F03F000
1F01F800
1F01FC00
1F00FC00
1F807E00
FFE07F80
FFE03F80
ENDCHAR

STARTCHAR Aacute
ENCODING 193
SWIDTH 778 0
DWIDTH 30 0
BBX 28 34 1 0
BITMAP
0000C000
0001E000
0003C000
00078000
000E0000
00380000
00000000
00000000
00070000
000F0000
000F0000
001F8000
001F8000
003FC000
003FC000
0037E000
0077E000
0063E000
00E3F000
00C3F000
00C1F800
0181F800
0180FC00
0300FC00
03FFFC00
07FFFE00
06007E00
06003F00
0E003F00
0C001F80
1C001F80
1C001FC0
FF80FFF0
FF80FFF0
ENDCHAR

STARTCHAR Acircumflex
ENCODING 194
SWIDTH 778 0
DWIDTH 30 0
BBX 28 34 1 0
BITMAP
00070000
000F8000
001F8000
0019C000
0030E000
00E07000
00000000
00000000
00070000
000F0000
000F0000
001F8000
001F8000
003FC000
003FC000
0037E000
0077E000
0063E000
00E3F000
00C3F000
00C1F800
0181F800
0180FC00
0300FC00
03FFFC00
07FFFE00
06007E00
06003F00
0E003F00
0C001F80
1C001F80
1C001FC0
FF80FFF0
FF80FFF0
ENDCHAR

STARTCHAR Abreve
ENCODING 195
SWIDTH 778 0
DWIDTH 30 0
BBX 28 33 1 0
BITMAP
00C03000
00403000
00606000
003FE000
001FC000
00060000
00000000
00070000
000F0000
000F0000
001F8000
001F8000
003FC000
003FC000
0037E000
0077E000
0063E000
00E3F000
00C3F000
00C1F800
0181F800
0180FC00
0300FC00
03FFFC00
07FFFE00
06007E00
06003F00
0E003F00
0C001F80
1C001F80
1C001FC0
FF80FFF0
FF80FFF0
ENDCHAR

STARTCHAR Adieresis
ENCODING 196
SWIDTH 778 0
DWIDTH 30 0
BBX 28 32 1 0
BITMAP
00606000
00F0F000
00F0F000
00F0F000
00202000
00000000
000E0000
000F0000
001F0000
001F8000
001F8000
003FC000
003FC000
0077C000
0067E000
0067E000
00C3F000
00C3F000
01C1F800
0181F800
0380F800
0300FC00
03FFFC00
07FFFE00
06007E00
0E003F00
0C003F00
1C003F80
1C001F80
3C001FC0
FF80FFF0
FF80FFF0
ENDCHAR

STARTCHAR Lacute
ENCODING 197
SWIDTH 611 0
DWIDTH 23 0
BBX 21 34 1 0
BITMAP
000E00
001E00
003E00
007800
00E000
038000
000000
000000
FFF800
FFF800
0FC000
0F8000
0F8000
0F8000
0F8000
0F8000
0F8000
0F8000
0F8000
0F8000
0F8000
0F8000
0F8000
0F8000
0F8000
0F8000
0F8000
0F8008
0F8018
0F8018
0F8018
0F8078
1FFFF8
3FFFF8
ENDCHAR

STARTCHAR Cacute
ENCODING 198
SWIDTH 722 0
DWIDTH 27 0
BBX 25 34 1 0
BITMAP
00038000
00078000
000F8000
001E0000
00380000
00F00000
00000000
00000000
003FF800
01FFFF80
07F01F80
0FC00780
1F800380
3F000100
3E000100
7E000100
7C000000
FC000000
FC000000
FC000000
FC000000
FC000000
FC000000
FC000000
7E000000
7E000000
7F000000
3F000000
1F800000
0FE00080
07F80380
03FFFF00
00FFFC00
000FE000
ENDCHAR

STARTCHAR Ccedilla
ENCODING 199
SWIDTH 722 0
DWIDTH 27 0
BBX 25 34 2 -8
BITMAP
003FF800
01FFFF80
07F01F00
0FC00700
1F800300
3F000300
3E000300
7E000300
7C000000
FC000000
FC000000
FC000000
FC000000
FC000000
FC000000
FC000000
7C000000
7E000000
7E000000
3F000000
1F800000
0FC00080
07F00700
03FFFF00
00FFFC00
000BC000
00060000
00040000
000FC000
0001E000
0000E000
0000E000
0071C000
003F8000
ENDCHAR

STARTCHAR Ccaron
ENCODING 200
SWIDTH 722 0
DWIDTH 27 0
BBX 25 34 1 0
BITMAP
0180E000
00C18000
00E38000
00770000
003E0000
001C0000
00000000
00000000
003FF800
01FFFF80
07F01F80
0FC00780
1F800380
3F000100
3E000100
7E000100
7C000000
FC000000
FC000000
FC000000
FC000000
FC000000
FC000000
FC000000
7E000000
7E000000
7F000000
3F000000
1F800000
0FE00080
07F80380
03FFFF00
00FFFC00
000FE000
ENDCHAR

STARTCHAR Eacute
ENCODING 201
SWIDTH 611 0
DWIDTH 23 0
BBX 20 34 2 0
BITMAP
001C00
003C00
007C00
00F000
01C000
070000
000000
000000
FFFFF0
7FFFF0
1F0060
1F0020
1F0020
1F0000
1F0000
1F0000
1F0080
1F0180
1F0180
1FFF80
1FFF80
1F0180
1F0180
1F0080
1F0000
1F0000
1F0000
1F0010
1F0030
1F0030
1F0030
1F0070
3FFFF0
7FFFF0
ENDCHAR

STARTCHAR Eogonek
ENCODING 202
SWIDTH 611 0
DWIDTH 23 0
BBX 21 35 2 -9
BITMAP
FFFFF0
7FFFF0
1F8030
1F0030
1F0030
1F0000
1F0000
1F0000
1F00C0
1F00C0
1F00C0
1FFFC0
1FFFC0
1F00C0
1F00C0
1F00C0
1F0000
1F0000
1F0000
1F0018
1F0010
1F0010
1F0030
1F8070
3FFFF0
7FFFF0
000180
000700
000E00
001C00
001C00
001C00
001E30
001FC0
000F80
ENDCHAR

STARTCHAR Edieresis
ENCODING 203
SWIDTH 611 0
DWIDTH 23 0
BBX 20 33 2 0
BITMAP
060600
0F0F00
0F0F00
0F0F00
060600
000000
000000
FFFFF0
7FFFF0
1F0070
1F0030
1F0020
1F0000
1F0000
1F0000
1F0080
1F0080
1F0180
1FFF80
1FFF80
1F0180
1F0080
1F0080
1F0000
1F0000
1F0000
1F0010
1F0010
1F0030
1F0030
1F0070
3FFFF0
7FFFF0
ENDCHAR

STARTCHAR Ecaron
ENCODING 204
SWIDTH 611 0
DWIDTH 23 0
BBX 20 34 2 0
BITMAP
0C0700
070C00
039C00
01F800
00F000
00E000
000000
000000
FFFFF0
7FFFF0
1F0060
1F0020
1F0020
1F0000
1F0000
1F0000
1F0080
1F0180
1F0180
1FFF80
1FFF80
1F0180
1F0180
1F0080
1F0000
1F0000
1F0000
1F0010
1F0030
1F0030
1F0030
1F0070
3FFFF0
7FFFF0
ENDCHAR

STARTCHAR Iacute
ENCODING 205
SWIDTH 389 0
DWIDTH 15 0
BBX 13 34 1 0
BITMAP
00E0
01E0
03C0
0780
0E00
3800
0000
0000
FFF8
FFF8
0FC0
0F80
0F80
0F80
0F80
0F80
0F80
0F80
0F80
0F80
0F80
0F80
0F80
0F80
0F80
0F80
0F80
0F80
0F80
0F80
0F80
0F80
7FF0
FFF8
ENDCHAR

STARTCHAR Icircumflex
ENCODING 206
SWIDTH 389 0
DWIDTH 15 0
BBX 13 34 1 0
BITMAP
0700
0F80
0FC0
18E0
3060
6038
0000
0000
FFF8
FFF8
0FC0
0F80
0F80
0F80
0F80
0F80
0F80
0F80
0F80
0F80
0F80
0F80
0F80
0F80
0F80
0F80
0F80
0F80
0F80
0F80
0F80
0F80
7FF0
FFF8
ENDCHAR

STARTCHAR Dcaron
ENCODING 207
SWIDTH 833 0
DWIDTH 32 0
BBX 29 34 2 0
BITMAP
00C03000
0070E000
0039C000
001F8000
000F0000
000F0000
00000000
00000000
FFFFF800
FFFFFF00
1F007F80
1F001FC0
1F000FE0
1F0007F0
1F0003F0
1F0003F0
1F0001F8
1F0001F8
1F0001F8
1F0001F8
1F0001F8
1F0001F8
1F0001F8
1F0001F0
1F0001F0
1F0003F0
1F0003E0
1F0007E0
1F0007C0
1F000F80
1F003F00
1F00FC00
3FFFF000
7FFF8000
ENDCHAR

STARTCHAR Dcroat
ENCODING 208
SWIDTH 833 0
DWIDTH 32 0
BBX 29 26 2 0
BITMAP
FFFFF800
FFFFFF00
1F007F80
1F001FC0
1F0007E0
1F0007F0
1F0003F0
1F0003F0
1F0001F8
1F0001F8
1F0001F8
FFFF01F8
FFFF01F8
1F0001F8
1F0001F8
1F0001F0
1F0001F0
1F0003F0
1F0003E0
1F0007C0
1F0007C0
1F000F80
1F003F00
1F00FC00
3FFFF000
7FFF8000
ENDCHAR

STARTCHAR Nacute
ENCODING 209
SWIDTH 833 0
DWIDTH 32 0
BBX 30 35 1 -1
BITMAP
0000E000
0001F000
0003E000
00078000
000F0000
001C0000
00000000
00000000
FF8007FC
FFC007FC
0FC000E0
0FE000C0
0FF000C0
0FF800C0
0DFC00C0
0DFC00E0
0CFE00E0
0C7F00E0
0C3F80E0
0C1FC0E0
0C1FE0E0
0C0FE0E0
0C07F0E0
0C03F8E0
0C01FCE0
0C00FEE0
0C00FF60
0C007FE0
0C003FE0
0C001FE0
0C000FE0
0C0007E0
7F8003E0
FF8001E0
00000020
ENDCHAR

STARTCHAR Ncaron
ENCODING 210
SWIDTH 833 0
DWIDTH 32 0
BBX 30 35 1 -1
BITMAP
00601800
00307000
001CE000
000EC000
000F8000
00078000
00000000
00000000
FF8007FC
FFC007FC
0FC000E0
0FE000C0
0FF000C0
0FF800C0
0DFC00C0
0DFC00E0
0CFE00E0
0C7F00E0
0C3F80E0
0C1FC0E0
0C1FE0E0
0C0FE0E0
0C07F0E0
0C03F8E0
0C01FCE0
0C00FEE0
0C00FF60
0C007FE0
0C003FE0
0C001FE0
0C000FE0
0C0007E0
7F8003E0
FF8001E0
00000020
ENDCHAR

STARTCHAR Oacute
ENCODING 211
SWIDTH 833 0
DWIDTH 32 0
BBX 29 34 1 0
BITMAP
0000C000
0001E000
0003E000
00078000
000E0000
003C0000
00000000
00000000
003FF000
01FFFE00
07E03F00
0F800FC0
1F0007C0
3E0007E0
3E0003F0
7E0003F0
7C0001F0
7C0001F8
FC0001F8
FC0001F8
FC0001F8
FC0001F8
FC0001F8
FC0001F8
FC0001F0
7E0001F0
7E0003F0
7E0003E0
3F0007C0
1F8007C0
0FC00F80
07F03E00
01FFFC00
003FE000
ENDCHAR

STARTCHAR Ocircumflex
ENCODING 212
SWIDTH 833 0
DWIDTH 32 0
BBX 29 34 1 0
BITMAP
00070000
00078000
000FC000
001DC000
00386000
00603800
00000000
00000000
003FF000
01FFFE00
07E03F00
0F800FC0
1F0007C0
3E0007E0
3E0003F0
7E0003F0
7C0001F0
7C0001F8
FC0001F8
FC0001F8
FC0001F8
FC0001F8
FC0001F8
FC0001F8
FC0001F0
7E0001F0
7E0003F0
7E0003E0
3F0007C0
1F8007C0
0FC00F80
07F03E00
01FFFC00
003FE000
ENDCHAR

STARTCHAR Ohungarumlaut
ENCODING 213
SWIDTH 833 0
DWIDTH 32 0
BBX 29 34 1 0
BITMAP
000E1C00
001E3C00
003C7800
0078F000
0061C000
01C38000
00000000
00000000
003FF000
01FFFE00
07E03F00
0F800FC0
1F0007E0
3E0007E0
3E0003F0
7E0003F0
7C0001F0
7C0001F8
FC0001F8
FC0001F8
FC0001F8
FC0001F8
FC0001F8
FC0001F8
FC0001F0
7E0001F0
7E0003F0
7E0003E0
3F0007C0
1F8007C0
0FC00F80
07F03E00
01FFFC00
003FE000
ENDCHAR

STARTCHAR Odieresis
ENCODING 214
SWIDTH 833 0
DWIDTH 32 0
BBX 29 32 2 0
BITMAP
00606000
00F0F000
00F0F000
00F0F000
00202000
00000000
003FE000
01FFFC00
07E07F00
0F801F80
1F000FC0
3E0007E0
3E0003F0
7C0003F0
7C0003F0
7C0001F8
FC0001F8
FC0001F8
FC0001F8
FC0001F8
FC0001F8
FC0001F8
FC0001F0
7C0001F0
7E0003F0
7E0003E0
3F0007C0
1F000FC0
0F801F00
07E07E00
01FFF800
007FC000
ENDCHAR

STARTCHAR multiply
ENCODING 215
SWIDTH 606 0
DWIDTH 23 0
BBX 17 16 3 5
BITMAP
200200
700700
F80F80
7C1F00
3E3E00
1F7C00
0FF800
07F000
03E000
07F000
0FF800
1F7C00
3E3E00
FC1F80
780F00
300600
ENDCHAR

STARTCHAR Rcaron
ENCODING 216
SWIDTH 722 0
DWIDTH 27 0
BBX 25 34 2 0
BITMAP
0180C000
00C18000
00670000
007E0000
003E0000
001C0000
00000000
00000000
FFFFC000
FFFFF000
1F07F000
1F01F800
1F01F800
1F00F800
1F00F800
1F00F800
1F00F800
1F01F000
1F03E000
1F078000
1F3F0000
1F3F0000
1F1F8000
1F1FC000
1F0FC000
1F07E000
1F07F000
1F03F000
1F01F800
1F01FC00
1F00FC00
1F807E00
FFE07F80
FFE03F80
ENDCHAR

STARTCHAR Uring
ENCODING 217
SWIDTH 778 0
DWIDTH 30 0
BBX 27 36 1 0
BITMAP
000E0000
001F0000
00318000
00318000
00318000
00318000
001F0000
000E0000
00000000
00000000
FFE01FE0
FFE01FE0
1F000300
1F000300
1F000300
1F000300
1F000300
1F000300
1F000300
1F000300
1F000300
1F000300
1F000300
1F000300
1F000300
1F000300
1F000300
1F000300
1F000300
1F800700
1F800700
0FC00E00
0FE03E00
07FFFC00
01FFF000
007FC000
ENDCHAR

STARTCHAR Uacute
ENCODING 218
SWIDTH 778 0
DWIDTH 30 0
BBX 27 34 1 0
BITMAP
0001C000
0003C000
00078000
000F0000
001C0000
00700000
00000000
00000000
FFE01FE0
FFE01FE0
1F000300
1F000300
1F000300
1F000300
1F000300
1F000300
1F000300
1F000300
1F000300
1F000300
1F000300
1F000300
1F000300
1F000300
1F000300
1F000300
1F000300
1F800700
1F800700
0FC00E00
0FE03E00
07FFFC00
01FFF000
007FC000
ENDCHAR

STARTCHAR Uhungarumlaut
ENCODING 219
SWIDTH 778 0
DWIDTH 30 0
BBX 27 34 1 0
BITMAP
001C3800
003C7800
0038F000
0071E000
00E3C000
01870000
00000000
00000000
FFE01FE0
FFE01FE0
1F000300
1F000300
1F000300
1F000300
1F000300
1F000300
1F000300
1F000300
1F000300
1F000300
1F000300
1F000300
1F000300
1F000300
1F000300
1F000300
1F000300
1F800700
1F800700
0FC00E00
0FE03E00
07FFFC00
01FFF000
007FC000
ENDCHAR

STARTCHAR Udieresis
ENCODING 220
SWIDTH 778 0
DWIDTH 30 0
BBX 27 33 2 0
BITMAP
00C0C000
01E1E000
01E1E000
01E1E000
00C0C000
00000000
00000000
FFE01FE0
FFE01FE0
1F000300
1F000300
1F000300
1F000300
1F000300
1F000300
1F000300
1F000300
1F000300
1F000300
1F000300
1F000300
1F000300
1F000300
1F000300
1F000300
1F000300
1F800700
1F800700
0FC00E00
0FE03E00
07FFFC00
01FFF000
007FC000
ENDCHAR

STARTCHAR Yacute
ENCODING 221
SWIDTH 667 0
DWIDTH 25 0
BBX 25 34 0 0
BITMAP
00038000
00078000
000F0000
001E0000
00380000
00E00000
00000000
00000000
1F000780
FF800700
7F800F00
1FC00E00
0FE01C00
07E01C00
07F03800
03F03000
01F87000
01F8E000
00FCE000
007DC000
007F8000
003F8000
003F0000
001F0000
001F0000
001F0000
001F0000
001F0000
001F0000
001F0000
001F0000
001F0000
00FFE000
01FFF000
ENDCHAR

STARTCHAR Tcommaaccent
ENCODING 222
SWIDTH 667 0
DWIDTH 25 0
BBX 24 36 1 -10
BITMAP
FFFFFF
FFFFFF
C07C06
C07C06
807C02
807C02
007C00
007C00
007C00
007C00
007C00
007C00
007C00
007C00
007C00
007C00
007C00
007C00
007C00
007C00
007C00
007C00
007C00
00FC00
07FFC0
07FFC0
000000
000000
001C00
003C00
003800
007000
007000
006000
00C000
008000
ENDCHAR

STARTCHAR germandbls
ENCODING 223
SWIDTH 611 0
DWIDTH 23 0
BBX 21 28 1 0
BITMAP
001E00
007F80
01FFC0
03C1E0
0780E0
0F00E0
0F00E0
1F00E0
1F00E0
1F00C0
1F03C0
3F07C0
FF0C00
1F1C00
1F3C00
1F3F00
1F3FC0
1F1FE0
1F1FF0
1F0FF8
1F03F8
1F00F8
1F0078
1F3070
1F3070
1F38E0
FFFF80
FFDF00
ENDCHAR

STARTCHAR racute
ENCODING 224
SWIDTH 389 0
DWIDTH 15 0
BBX 14 26 0 0
BITMAP
0070
00F0
01E0
03C0
0700
1C00
0000
0000
031C
FF3C
FF7C
1F7C
1F8C
1F00
1F00
1F00
1F00
1F00
1F00
1F00
1F00
1F00
1F00
1F00
FFE0
FFE0
ENDCHAR

STARTCHAR aacute
ENCODING 225
SWIDTH 500 0
DWIDTH 19 0
BBX 17 26 1 0
BITMAP
003000
007800
00F800
01E000
038000
0F0000
000000
000000
03E000
0FF800
3FFC00
30FC00
207C00
003C00
003C00
00FC00
0FFC00
3E3C00
7C3C00
783C00
F83C00
F83C00
FCFC00
FFBC00
7F3F80
1C0000
ENDCHAR

STARTCHAR acircumflex
ENCODING 226
SWIDTH 500 0
DWIDTH 19 0
BBX 17 26 1 0
BITMAP
01C000
03E000
03E000
077000
0E3800
180C00
100400
000000
03E000
0FF800
3FFC00
30FC00
207C00
003C00
003C00
00FC00
0FFC00
3E3C00
7C3C00
783C00
F83C00
F83C00
FCFC00
FFBC00
7F3F80
1C0000
ENDCHAR

STARTCHAR abreve
ENCODING 227
SWIDTH 500 0
DWIDTH 19 0
BBX 17 25 1 0
BITMAP
100400
180C00
0C1800
0FF800
07F000
01C000
000000
03E000
0FF800
3FFC00
30FC00
207C00
003C00
003C00
00FC00
0FFC00
3E3C00
7C3C00
783C00
F83C00
F83C00
FCFC00
FFBC00
7F3F80
1C0000
ENDCHAR

STARTCHAR adieresis
ENCODING 228
SWIDTH 500 0
DWIDTH 19 0
BBX 18 25 1 0
BITMAP
0C0C00
1E1E00
1E1E00
1E1E00
0C0C00
000000
000000
03F000
0FFC00
3FFE00
307E00
303E00
003E00
001E00
007E00
07FE00
3F1E00
7C1E00
781E00
F81E00
F83E00
FC7E00
FFDE00
7F3FC0
1C0000
ENDCHAR

STARTCHAR lacute
ENCODING 229
SWIDTH 333 0
DWIDTH 13 0
BBX 11 34 1 0
BITMAP
01C0
03C0
0780
0E00
1C00
7000
0100
0700
FF00
7F00
1F00
1F00
1F00
1F00
1F00
1F00
1F00
1F00
1F00
1F00
1F00
1F00
1F00
1F00
1F00
1F00
1F00
1F00
1F00
1F00
1F00
1F00
FFC0
FFE0
ENDCHAR

STARTCHAR cacute
ENCODING 230
SWIDTH 444 0
DWIDTH 17 0
BBX 15 26 1 0
BITMAP
0060
00F0
01F0
03C0
0700
1E00
0000
0000
01F8
03FE
0FFC
3C1C
380C
780C
780C
F800
F800
F800
F800
FC00
7C00
7E00
7F00
3FFE
0FFC
03F0
ENDCHAR

STARTCHAR ccedilla
ENCODING 231
SWIDTH 444 0
DWIDTH 17 0
BBX 14 27 1 -9
BITMAP
01F8
07FC
0FFC
1C1C
380C
780C
780C
F800
F800
F800
F800
F800
FC00
7C00
7E00
3F84
3FFC
0FF8
00C0
0180
0100
03F0
0078
0038
0038
1C70
0FE0
ENDCHAR

STARTCHAR ccaron
ENCODING 232
SWIDTH 444 0
DWIDTH 17 0
BBX 15 26 1 0
BITMAP
6018
3030
1870
0EE0
0FC0
0780
0300
0000
01F8
03FE
0FFC
3C1C
380C
780C
780C
F800
F800
F800
F800
FC00
7C00
7E00
7F00
3FFE
0FFC
03F0
ENDCHAR

STARTCHAR eacute
ENCODING 233
SWIDTH 500 0
DWIDTH 19 0
BBX 16 26 2 0
BITMAP
0030
00F0
01F0
03E0
0780
1E00
0000
0000
03F0
0FFC
3C3E
781E
781F
F81F
F81F
FFFF
FFFE
F800
F800
F800
FC00
7E00
7F03
3FFE
1FFC
03F0
ENDCHAR

STARTCHAR eogonek
ENCODING 234
SWIDTH 500 0
DWIDTH 19 0
BBX 16 27 2 -9
BITMAP
03F0
0FFC
3C3E
783E
781F
F81F
F01F
FFFF
FFFE
F800
F800
F800
FC00
7C00
7F03
3FFE
1FFC
0370
00C0
0180
0380
0700
0700
0784
07C8
07F8
03E0
ENDCHAR

STARTCHAR edieresis
ENCODING 235
SWIDTH 500 0
DWIDTH 19 0
BBX 16 25 2 0
BITMAP
1818
3C3C
3C3C
3C3C
1818
0000
0000
03F0
0FFC
3C3E
781E
781F
F81F
F81F
FFFF
FFFE
F800
F800
F800
FC00
7E00
7F03
3FFE
1FFC
03F0
ENDCHAR

STARTCHAR ecaron
ENCODING 236
SWIDTH 500 0
DWIDTH 19 0
BBX 16 26 2 0
BITMAP
300C
1818
0C70
0EE0
07C0
03C0
0000
0000
03F0
0FFC
3C3E
781E
781F
F81F
F81F
FFFF
FFFE
F800
F800
F800
FC00
7E00
7F03
3FFE
1FFC
03F0
ENDCHAR

STARTCHAR iacute
ENCODING 237
SWIDTH 333 0
DWIDTH 13 0
BBX 11 26 1 0
BITMAP
01C0
03C0
07C0
0F00
1C00
7000
0000
0000
0300
3F00
FF00
1F00
1F00
1F00
1F00
1F00
1F00
1F00
1F00
1F00
1F00
1F00
1F00
1F00
FFE0
FFE0
ENDCHAR

STARTCHAR icircumflex
ENCODING 238
SWIDTH 333 0
DWIDTH 13 0
BBX 12 26 1 0
BITMAP
0E00
1F00
1F80
3B80
70C0
C070
0000
0000
0300
3F00
FF00
1F00
1F00
1F00
1F00
1F00
1F00
1F00
1F00
1F00
1F00
1F00
1F00
1F00
FFE0
FFE0
ENDCHAR

STARTCHAR dcaron
ENCODING 239
SWIDTH 738 0
DWIDTH 28 0
BBX 26 28 2 0
BITMAP
000060C0
0007E3C0
001FE380
0007E780
0003E700
0003E600
0003CE00
0003CC00
0003C000
0003C000
01FBC000
07FFC000
1E1FC000
3C07C000
7C03C000
7803C000
F803C000
F803C000
F803C000
F803C000
F803C000
FC03C000
7C07C000
7E0FC000
7FFBC000
3FF3E000
1FE7F800
07800000
ENDCHAR

STARTCHAR dcroat
ENCODING 240
SWIDTH 611 0
DWIDTH 23 0
BBX 21 28 2 0
BITMAP
0000E0
001FE0
001FE0
0007E0
0003E0
01FFF8
01FFF8
0003C0
0003C0
0003C0
03FBC0
07FFC0
1E1FC0
3C07C0
7C03C0
7803C0
F803C0
F803C0
F803C0
F803C0
F803C0
FC03C0
7C07C0
7E0FC0
7FFBC0
3FF3E0
1FE7F8
078000
ENDCHAR

STARTCHAR nacute
ENCODING 241
SWIDTH 611 0
DWIDTH 23 0
BBX 21 26 1 0
BITMAP
000E00
001E00
003E00
007800
00F000
01C000
000000
000000
071F80
FF7FC0
FF7FC0
1FC7E0
1F03E0
1F03E0
1F03E0
1F03E0
1F03E0
1F03E0
1F03E0
1F03E0
1F03E0
1F03E0
1F03E0
1F03E0
FFC3F8
FFC3F8
ENDCHAR

STARTCHAR ncaron
ENCODING 242
SWIDTH 611 0
DWIDTH 23 0
BBX 21 26 1 0
BITMAP
060380
030600
01CE00
00EC00
00F800
007000
000000
000000
071F80
FF7FC0
FF7FC0
1FC7E0
1F03E0
1F03E0
1F03E0
1F03E0
1F03E0
1F03E0
1F03E0
1F03E0
1F03E0
1F03E0
1F03E0
1F03E0
FFC3F8
FFC3F8
ENDCHAR

STARTCHAR oacute
ENCODING 243
SWIDTH 556 0
DWIDTH 21 0
BBX 18 26 2 0
BITMAP
001800
003C00
007800
00F000
03C000
0F0000
000000
000000
07F800
1FFE00
3E1F00
7C0F80
7C0F80
F807C0
F807C0
F807C0
F807C0
F807C0
F807C0
F807C0
FC0780
7C0780
7C0F00
3E1F00
1FFC00
03F000
ENDCHAR

STARTCHAR ocircumflex
ENCODING 244
SWIDTH 556 0
DWIDTH 21 0
BBX 18 26 2 0
BITMAP
00E000
01E000
03F000
073800
061C00
0C0C00
180600
000000
07F800
1FFE00
3E1F00
7C0F80
7C0F80
F807C0
F807C0
F807C0
F807C0
F807C0
F807C0
F807C0
FC0780
7C0780
7C0F00
3E1F00
1FFC00
03F000
ENDCHAR

STARTCHAR ohungarumlaut
ENCODING 245
SWIDTH 556 0
DWIDTH 21 0
BBX 18 26 2 0
BITMAP
038700
078F00
071F00
0E1C00
1C3800
38E000
000000
000000
07F800
1FFE00
3E1F00
7C0F80
7C0F80
F807C0
F807C0
F807C0
F807C0
F807C0
F807C0
F807C0
FC0780
7C0780
7C0F00
3E1F00
1FFC00
03F000
ENDCHAR

STARTCHAR odieresis
ENCODING 246
SWIDTH 556 0
DWIDTH 21 0
BBX 18 24 2 0
BITMAP
0C0C00
1E1E00
1E1E00
1E1E00
0C0C00
000000
07F800
1FFE00
3E1F00
7C0F80
7C0F80
F807C0
F807C0
F807C0
F807C0
F807C0
F807C0
F807C0
FC0780
7C0780
7C0F00
3E1F00
1FFC00
03F000
ENDCHAR

STARTCHAR divide
ENCODING 247
SWIDTH 606 0
DWIDTH 23 0
BBX 19 17 2 4
BITMAP
00E000
01F000
01F000
01F000
00E000
000000
000000
FFFFE0
FFFFE0
FFFFE0
000000
000000
00E000
01F000
01F000
01F000
00E000
ENDCHAR

STARTCHAR rcaron
ENCODING 248
SWIDTH 389 0
DWIDTH 15 0
BBX 14 26 0 0
BITMAP
6018
3830
1C60
0EE0
07C0
0780
0000
0000
031C
FF3C
FF7C
1F7C
1F8C
1F00
1F00
1F00
1F00
1F00
1F00
1F00
1F00
1F00
1F00
1F00
FFE0
FFE0
ENDCHAR

STARTCHAR uring
ENCODING 249
SWIDTH 611 0
DWIDTH 23 0
BBX 22 28 0 0
BITMAP
007800
00FC00
01CE00
018600
018600
01CE00
00FC00
007800
000000
000000
030060
7F0FE0
FF1FE0
1F03E0
1F03E0
1F03E0
1F03E0
1F03E0
1F03E0
1F03E0
1F03E0
1F03E0
1F03E0
1F87E0
0FFDE0
0FFBE0
07F3FC
03C3FC
ENDCHAR

STARTCHAR uacute
ENCODING 250
SWIDTH 611 0
DWIDTH 23 0
BBX 23 26 0 0
BITMAP
000300
000F00
001F00
003E00
007800
01E000
000000
000000
030030
7F0FF0
FF0FF0
1F01F0
1F01F0
1F01F0
1F01F0
1F01F0
1F01F0
1F01F0
1F01F0
1F01F0
1F01F0
1F83F0
0FFEF0
0FFDF0
07F1FE
01E1FE
ENDCHAR

STARTCHAR uhungarumlaut
ENCODING 251
SWIDTH 611 0
DWIDTH 23 0
BBX 23 26 0 0
BITMAP
0070E0
00F1E0
01E3C0
03C780
030E00
0E1C00
000000
000000
030030
7F0FF0
FF0FF0
1F01F0
1F01F0
1F01F0
1F01F0
1F01F0
1F01F0
1F01F0
1F01F0
1F01F0
1F01F0
1F83F0
0FFEF0
0FFDF0
07F1FE
01E1FE
ENDCHAR

STARTCHAR udieresis
ENCODING 252
SWIDTH 611 0
DWIDTH 23 0
BBX 22 25 0 0
BITMAP
030300
078780
078780
078780
030300
000000
000000
030060
7F0FE0
FF1FE0
1F03E0
1F03E0
1F03E0
1F03E0
1F03E0
1F03E0
1F03E0
1F03E0
1F03E0
1F03E0
1F87E0
0FFDE0
0FFBE0
07F3FC
03C3FC
ENDCHAR

STARTCHAR yacute
ENCODING 253
SWIDTH 556 0
DWIDTH 21 0
BBX 20 36 0 -10
BITMAP
000800
001C00
003C00
007800
01E000
038000
060000
000000
000000
FFC7F0
3F01E0
3F01C0
1F0180
1F0380
0F8300
0F8300
0F8700
07C600
07CE00
07EC00
03FC00
03F800
01F800
01F800
01F000
00F000
00E000
006000
00C000
00C000
01C000
018000
630000
7F0000
7E0000
FC0000
ENDCHAR

STARTCHAR tcommaaccent
ENCODING 254
SWIDTH 333 0
DWIDTH 13 0
BBX 13 35 0 -10
BITMAP
0100
0700
1F00
1F00
1F00
1F00
1F00
1F00
3FF8
FFF8
1F00
1F00
1F00
1F00
1F00
1F00
1F00
1F00
1F00
1F00
1F00
1F90
1FF0
0FE0
07C0
0000
0000
03C0
0780
0700
0700
0E00
0C00
1C00
1000
ENDCHAR

STARTCHAR dotaccent
ENCODING 255
SWIDTH 333 0
DWIDTH 13 0
BBX 4 5 4 20
BITMAP
60
F0
F0
F0
60
ENDCHAR
ENDFONT
